# xmcd CD database file
#
# Track frame offsets:
#	150
#	8972
#	23426
#	32027
#	43735
#	53029
#	64413
#	83362
#	96768
#	110290
#	121397
#	134481
#	143456
#	162740
#	169759
#	180460
#	192463
#	209406
#
# Disc length: 2967 seconds
#
# Revision: 3
# Processed by: cddbd v1.5.2PL0 Copyright (c) Steve Scherf et al.
# Submitted via: CDex 1.51
#
DISCID=f20b9512
DTITLE=Various Artist - A Family Christmas
DYEAR=1900
DGENRE=Christmas
TTITLE0=Sinatra, Frank -Mistletoe And Holly
TTITLE1=Cole, Nat 'King' -The Christmas Song
TTITLE2=Autry, Gene -Frosty The Snow Man
TTITLE3=Benton, Brook -Merry Christmas All
TTITLE4=Helms, Bobby -Jingle Bell Rock
TTITLE5=Clooney, Rosemary -The Little Drummer Boy
TTITLE6=Shirelles, The -Silent Night
TTITLE7=Posey, Sandy -It Came Upon A Midnight Clear
TTITLE8=Robbins, Phylis -The Little Boy Santa Claus Forgot
TTITLE9=Platters, The -Please Come Home For Christmas
TTITLE10=Armstrong, Louis -Christmas In New Orleans
TTITLE11=Greene, Jack -I'll Be Home For Christmas
TTITLE12=Jackson, Mahalia -What Child Is This
TTITLE13=Smith, Margo -We Wish You A Merry Christmas
TTITLE14=Moonglows, The -Hey Santa Claus
TTITLE15=Clooney, Rosemary -Suzy Snowflake
TTITLE16=Benton, Brook -When A Child Is Born
TTITLE17=Crosby, Bing -Faith Of Our Fathers
EXTD=
EXTT0=
EXTT1=
EXTT2=
EXTT3=
EXTT4=
EXTT5=
EXTT6=
EXTT7=
EXTT8=
EXTT9=
EXTT10=
EXTT11=
EXTT12=
EXTT13=
EXTT14=
EXTT15=
EXTT16=
EXTT17=
PLAYORDER=
